<svg width="24" height="24" viewBox="0 0 24 24" fill="none" xmlns="http://www.w3.org/2000/svg">
<path d="M8.30762 13.9229H15.6924C17.6304 13.9229 19.4889 14.6931 20.8594 16.0635C22.2298 17.4339 22.9999 19.2925 23 21.2305C23 21.6997 22.8132 22.1497 22.4814 22.4814C22.1497 22.8132 21.6997 23 21.2305 23H2.76953C2.3003 23 1.85035 22.8132 1.51855 22.4814C1.18676 22.1497 1 21.6997 1 21.2305C1.00008 19.2925 1.77024 17.4339 3.14062 16.0635C4.51105 14.6931 6.36958 13.9229 8.30762 13.9229ZM10.2637 1.3457C11.0929 1.00231 12.0055 0.911819 12.8857 1.08691C13.7659 1.26205 14.5744 1.69455 15.209 2.3291C15.8437 2.96382 16.2761 3.77295 16.4512 4.65332C16.6262 5.53362 16.5368 6.44617 16.1934 7.27539C15.8499 8.10469 15.2678 8.81381 14.5215 9.3125C13.7752 9.81112 12.8976 10.0771 12 10.0771C10.7965 10.0771 9.64211 9.59899 8.79102 8.74805C7.93989 7.89692 7.46191 6.74176 7.46191 5.53809C7.46199 4.6406 7.72794 3.76284 8.22656 3.0166C8.72524 2.27043 9.43451 1.68915 10.2637 1.3457Z" stroke="#01C38D" stroke-width="2"/>
</svg>
